<?xml version="1.0" standalone="no"?>
<!DOCTYPE svg PUBLIC "-//W3C//DTD SVG 20010904//EN"
 "http://www.w3.org/TR/2001/REC-SVG-20010904/DTD/svg10.dtd">
<svg version="1.0" xmlns="http://www.w3.org/2000/svg"
 width="512.000000pt" height="512.000000pt" viewBox="0 0 512.000000 512.000000"
 preserveAspectRatio="xMidYMid meet">

<g transform="translate(0.000000,512.000000) scale(0.100000,-0.100000)"
fill="#000000" stroke="none">
<path d="M2485 4948 c-33 -11 -368 -129 -745 -262 l-685 -241 -477 -5 c-462
-5 -477 -6 -504 -26 -15 -11 -37 -33 -48 -48 l-21 -27 0 -1737 c0 -1653 1
-1739 18 -1770 10 -18 32 -42 50 -52 31 -19 55 -20 735 -20 l702 0 0 -155 0
-155 -237 0 c-212 0 -243 -3 -280 -19 -50 -23 -74 -57 -80 -115 -7 -57 18
-109 66 -138 l36 -23 1552 0 1552 0 28 21 c86 65 86 183 0 248 -27 20 -42 21
-278 24 l-249 3 0 149 0 149 699 3 c689 3 700 3 727 24 15 11 37 33 48 48 21
27 21 28 24 1764 2 1677 2 1738 -16 1772 -11 19 -31 44 -46 55 -26 19 -43 20
-454 23 l-427 3 -802 264 c-441 146 -808 265 -815 264 -7 0 -40 -10 -73 -21z
m-1253 -873 l198 -70 0 -297 c0 -326 6 -381 48 -421 19 -18 181 -85 532 -220
278 -107 518 -197 534 -200 16 -2 52 3 80 13 157 54 985 376 1007 391 54 38
59 70 59 407 l0 308 143 47 c78 26 146 47 150 47 4 0 7 -197 7 -438 0 -406 1
-440 19 -472 54 -104 200 -108 261 -8 19 32 20 52 20 506 l0 472 265 0 265 0
0 -1543 0 -1544 -2260 -1 -2260 -1 0 1550 0 1550 368 -3 367 -3 197 -70z"/>
</g>
</svg>
